<svg width="67" height="68" viewBox="0 0 67 68" fill="none" xmlns="http://www.w3.org/2000/svg">
<path fill-rule="evenodd" clip-rule="evenodd" d="M18.9723 8.38042C18.9723 8.23531 18.9723 8.16276 18.9267 8.11857C18.8812 8.07437 18.8081 8.07658 18.6618 8.08099C11.4153 8.29962 7.09259 9.10842 4.1005 12.1005C0 16.201 0 22.8007 0 36V39.5555C0 52.7549 0 59.3545 4.1005 63.455C8.20101 67.5556 14.8007 67.5556 28 67.5556H39C52.1993 67.5556 58.799 67.5556 62.8995 63.455C67 59.3545 67 52.7549 67 39.5555V36C67 22.8007 67 16.201 62.8995 12.1005C59.9074 9.10843 55.5847 8.29963 48.3382 8.08099C48.192 8.07658 48.1189 8.07438 48.0734 8.11857C48.0278 8.16276 48.0278 8.23532 48.0278 8.38042L48.0278 17.3056C48.0278 18.134 47.3563 18.8056 46.5278 18.8056C45.6994 18.8056 45.0278 18.134 45.0278 17.3056L45.0278 8.31556C45.0278 8.1754 45.0278 8.10533 44.9844 8.06148C44.9409 8.01762 44.8709 8.017 44.7309 8.01574C42.972 8 41.0669 8 39 8H28C25.9331 8 24.0281 8 22.2691 8.01574C22.1292 8.017 22.0592 8.01762 22.0157 8.06147C21.9723 8.10533 21.9723 8.1754 21.9723 8.31556L21.9723 17.3056C21.9723 18.134 21.3007 18.8056 20.4723 18.8056C19.6438 18.8056 18.9723 18.134 18.9723 17.3056L18.9723 8.38042Z" fill="#7E869E" fill-opacity="0.25"/>
<path d="M20.4721 1.1282L20.4722 16.0171" stroke="#222222" stroke-width="2" stroke-linecap="round"/>
<path d="M46.5281 1.1282L46.5281 16.0171" stroke="#222222" stroke-width="2" stroke-linecap="round"/>
<circle cx="16.75" cy="32.1944" r="1.86111" fill="#222222"/>
<circle cx="27.917" cy="32.1944" r="1.86111" fill="#222222"/>
<circle cx="39.0833" cy="32.1944" r="1.86111" fill="#222222"/>
<circle cx="50.25" cy="32.1944" r="1.86111" fill="#222222"/>
<circle cx="16.75" cy="43.3611" r="1.86111" fill="#222222"/>
<circle cx="27.917" cy="43.3611" r="1.86111" fill="#222222"/>
<circle cx="39.0833" cy="43.3611" r="1.86111" fill="#222222"/>
<circle cx="50.25" cy="43.3611" r="1.86111" fill="#222222"/>
<circle cx="16.75" cy="54.5278" r="1.86111" fill="#222222"/>
<circle cx="27.917" cy="54.5278" r="1.86111" fill="#222222"/>
<circle cx="39.0833" cy="54.5278" r="1.86111" fill="#222222"/>
<circle cx="50.25" cy="54.5278" r="1.86111" fill="#222222"/>
</svg>
